<svg width="15" height="16" viewBox="0 0 15 16" fill="none" xmlns="http://www.w3.org/2000/svg">
<g id="Frame 139">
<path id="Union" fill-rule="evenodd" clip-rule="evenodd" d="M7.5143 1.43042C11.1172 1.43042 14.0625 4.35656 14.0625 7.96451C14.0625 11.5441 11.1172 14.4702 7.5143 14.4702C6.4277 14.4702 5.34109 14.2145 4.39747 13.7031L1.4808 14.5554C1.16626 14.6406 0.851716 14.3281 0.966095 14.0156L1.79534 11.1747C1.22345 10.2088 0.9375 9.10087 0.9375 7.96451C0.9375 4.35656 3.88276 1.43042 7.5143 1.43042ZM7.5143 2.28269C4.34028 2.28269 1.79534 4.8111 1.79534 7.96451C1.79534 8.98724 2.08129 10.01 2.62459 10.8906C2.68178 11.0043 2.71038 11.1179 2.65319 11.26L1.99551 13.5327L4.31168 12.8509C4.42606 12.8225 4.54044 12.8225 4.65482 12.8793C5.51266 13.3906 6.51348 13.6463 7.5143 13.6463C10.6597 13.6463 13.2333 11.0895 13.2333 7.96451C13.2333 4.8111 10.6597 2.28269 7.5143 2.28269ZM11.4375 7.55542H3.5625V6.68042H11.4375V7.55542ZM3.5625 10.1804H8.8125V9.30542H3.5625V10.1804Z" fill="white"/>
</g>
</svg>
