<svg width="16" height="16" viewBox="0 0 16 16" fill="none" xmlns="http://www.w3.org/2000/svg">
<g id="carbon:edit">
<g id="Union">
<path fill-rule="evenodd" clip-rule="evenodd" d="M12.7 3.1C13.1 3.5 13.1 4.1 12.7 4.5L5.34645 11.8536C5.25268 11.9473 5.1255 12 4.99289 12H2.5C2.22386 12 2 11.7761 2 11.5V9.00711C2 8.8745 2.05268 8.74732 2.14645 8.65355L9.5 1.3C9.9 0.9 10.5 0.9 10.9 1.3L12.7 3.1ZM10.5536 2.35355C10.3583 2.15829 10.0417 2.15829 9.84645 2.35355L8.7 3.5L10.5 5.3L11.6464 4.15355C11.8417 3.95829 11.8417 3.64171 11.6464 3.44645L10.5536 2.35355ZM3 10.8C3 10.9105 3.08954 11 3.2 11H4.59289C4.7255 11 4.85268 10.9473 4.94645 10.8536L9.8 6L8 4.2L3.14645 9.05355C3.05268 9.14732 3 9.2745 3 9.40711V10.8Z" fill="#64748B"/>
<path d="M1.5 13C1.22386 13 1 13.2239 1 13.5C1 13.7761 1.22386 14 1.5 14H14.5C14.7761 14 15 13.7761 15 13.5C15 13.2239 14.7761 13 14.5 13H1.5Z" fill="#64748B"/>
</g>
</g>
</svg>
